HIERARCHY
ROOT Hips
{
	OFFSET 2.986477 97.943527 -2.248842
	CHANNELS 6 Xposition Yposition Zposition Xrotation Yrotation Zrotation
	JOINT Chest
	{
		OFFSET -5.887320 11.428246 4.570440
		CHANNELS 3 Xrotation Yrotation Zrotation
		JOINT Chest2
		{
			OFFSET -8.813785 16.351204 10.678104
			CHANNELS 3 Xrotation Yrotation Zrotation
			JOINT Chest3
			{
				OFFSET -3.448519 12.979218 6.516714
				CHANNELS 3 Xrotation Yrotation Zrotation
				JOINT Neck
				{
					OFFSET -2.333139 15.059021 8.148518
					CHANNELS 3 Xrotation Yrotation Zrotation
					JOINT Head
					{
						OFFSET 0.425640 9.118286 5.148153
						CHANNELS 3 Xrotation Yrotation Zrotation
						End Site
						{
							OFFSET 0.449228 9.151215 5.087360
						}
					}
				}
				JOINT LeftCollar
				{
					OFFSET 0.823561 9.788895 10.261757
					CHANNELS 3 Xrotation Yrotation Zrotation
					JOINT LeftUpArm
					{
						OFFSET 17.430763 -2.159760 0.057343
						CHANNELS 3 Xrotation Yrotation Zrotation
						JOINT LeftLowArm
						{
							OFFSET 26.368839 -21.063240 0.867353
							CHANNELS 3 Xrotation Yrotation Zrotation
							JOINT LeftHand
							{
								OFFSET -4.551418 -21.583359 20.356571
								CHANNELS 3 Xrotation Yrotation Zrotation
								End Site
								{
									OFFSET -0.994738 -4.717178 4.449039
								}
							}
						}
					}
				}
				JOINT RightCollar
				{
					OFFSET -6.768480 10.536652 6.706358
					CHANNELS 3 Xrotation Yrotation Zrotation
					JOINT RightUpArm
					{
						OFFSET -11.377996 5.448257 -12.221051
						CHANNELS 3 Xrotation Yrotation Zrotation
						JOINT RightLowArm
						{
							OFFSET -29.290184 -10.966827 -12.710171
							CHANNELS 3 Xrotation Yrotation Zrotation
							JOINT RightHand
							{
								OFFSET -18.079453 -18.991325 14.608814
								CHANNELS 3 Xrotation Yrotation Zrotation
								End Site
								{
									OFFSET -3.951469 -4.150719 3.192903
								}
							}
						}
					}
				}
			}
		}
	}
	JOINT LeftUpLeg
	{
		OFFSET 7.492269 1.245049 6.537194
		CHANNELS 3 Xrotation Yrotation Zrotation
		JOINT LeftLowLeg
		{
			OFFSET -8.237703 -41.316063 21.658993
			CHANNELS 3 Xrotation Yrotation Zrotation
			JOINT LeftFoot
			{
				OFFSET 2.447117 -37.910587 -23.608604
				CHANNELS 3 Xrotation Yrotation Zrotation
				JOINT LeftToe
				{
					OFFSET -3.397503 -18.282104 14.621255
					CHANNELS 3 Xrotation Yrotation Zrotation
					End Site
					{
						OFFSET -3.237132 -4.690927 22.958118
					}
				}
			}
		}
	}
	JOINT RightUpLeg
	{
		OFFSET -7.492187 -1.245216 -6.537263
		CHANNELS 3 Xrotation Yrotation Zrotation
		JOINT RightLowLeg
		{
			OFFSET 29.604252 -34.833412 -12.419127
			CHANNELS 3 Xrotation Yrotation Zrotation
			JOINT RightFoot
			{
				OFFSET 32.803635 -23.112057 -19.756887
				CHANNELS 3 Xrotation Yrotation Zrotation
				JOINT RightToe
				{
					OFFSET 13.803993 -18.392313 -5.543404
					CHANNELS 3 Xrotation Yrotation Zrotation
					End Site
					{
						OFFSET 0.033386 -23.648785 0.538532
					}
				}
			}
		}
	}
}
MOTION
Frames: 8
Frame Time: 0.033333
6.539052 88.225517 -5.539147 3.112250 -6.260921 4.324545 0.026194 0.556404 -1.396327 -3.708236 2.773471 -3.313062 1.246797 -0.213919 1.892023 -2.474986 4.775592 -0.839183 0.000001 0.000001 0.000001 -1.153746 -3.726327 7.636423 0.130611 -9.251809 6.681724 -10.320377 -14.456085 -8.200203 -0.000012 0.000001 -0.000002 5.675672 -0.723316 -11.493952 10.015698 9.257247 -9.617217 -3.396220 12.358368 10.497533 -0.000003 -0.000001 -0.000001 -13.939995 -2.226667 -4.655569 13.624253 -3.324190 -7.878592 -4.879850 14.751668 8.681740 0.000000 0.000001 -0.000000 1.066551 1.726475 -1.541671 -3.619754 -0.224017 -5.844881 4.961308 -2.019855 3.511274 -0.000001 -0.000001 0.000000 
6.542645 88.208130 -5.588114 2.998372 -6.152556 4.409498 0.122092 0.608067 -1.422322 -3.582649 2.922561 -3.342215 1.142599 -0.267469 1.947550 -2.515085 4.494761 -0.812409 0.000001 0.000000 -0.000000 -1.189003 -3.638376 7.576724 0.161405 -8.992663 6.684306 -9.255931 -14.538913 -9.377810 -0.000008 0.000002 -0.000002 5.553952 -0.925941 -11.616993 9.926223 9.001192 -9.669803 -3.372513 12.225790 10.844974 -0.000003 0.000000 0.000003 -13.521155 -2.157588 -4.882865 13.658289 -3.312883 -7.625457 -4.595359 14.376949 8.273406 0.000000 0.000002 0.000001 1.116243 1.791290 -1.644718 -3.596046 -0.266245 -5.728910 4.919373 -1.549457 3.468593 -0.000000 0.000002 -0.000000 
6.543691 88.189682 -5.645790 2.884302 -5.997157 4.429916 0.316915 0.738919 -1.428414 -4.074619 2.427533 -3.364512 1.398312 0.024934 1.976407 -2.164068 4.678093 -0.874437 -0.000001 0.000000 0.000001 -1.365425 -3.578975 7.482186 -0.052791 -8.864677 6.549546 -8.123766 -14.216387 -10.156670 -0.000005 -0.000000 0.000001 5.286551 -1.029821 -11.596969 9.795537 9.192297 -9.987173 -3.010960 11.291487 11.903774 -0.000005 -0.000002 -0.000003 -13.019241 -2.077924 -5.055392 13.232787 -3.247683 -7.269533 -4.732300 14.115721 8.098303 0.000000 0.000001 0.000001 1.131152 1.771970 -1.620193 -3.721785 -0.336977 -5.695251 4.870283 -0.954444 3.426535 -0.000001 -0.000001 0.000000 
6.547137 88.177612 -5.697058 2.686710 -5.853946 4.550525 0.392300 0.738814 -1.354828 -4.027042 2.668421 -3.474610 1.660915 -0.283796 1.878213 -2.476193 4.646856 -1.083335 -0.000001 -0.000002 -0.000001 -1.464890 -3.428331 7.401324 -0.407310 -9.274702 6.555944 -8.704879 -13.881017 -9.288329 -0.000003 0.000000 0.000002 5.206892 -0.955199 -11.630716 9.610563 9.227313 -9.958317 -3.022497 11.027817 12.248534 -0.000001 -0.000001 -0.000001 -12.851918 -2.075382 -5.304515 13.306759 -3.232223 -7.125491 -4.633018 14.177403 8.280414 -0.000001 0.000000 -0.000001 1.157925 1.845777 -1.720353 -3.813980 -0.527741 -5.662988 4.882361 -0.260817 3.343519 -0.000000 -0.000001 0.000000 
6.546687 88.172752 -5.747278 2.782060 -5.875884 4.559466 0.593420 0.891281 -1.433021 -4.402887 2.313657 -3.494805 1.917557 0.103591 1.950881 -2.540495 4.572714 -1.152819 0.000001 0.000000 -0.000000 -1.518737 -3.772040 7.480304 -0.748597 -9.824491 6.415723 -8.867668 -13.547182 -8.510070 -0.000007 0.000002 -0.000000 5.367407 -0.562325 -11.578076 9.419336 8.511911 -9.679011 -3.218896 11.128888 12.076504 -0.000001 0.000001 0.000001 -12.975778 -2.095508 -5.234765 13.175697 -3.112613 -7.202953 -4.689432 14.305157 8.365253 0.000000 0.000001 0.000001 0.880910 1.695175 -1.775705 -3.793084 -0.645837 -5.660796 4.724100 -0.536236 3.206987 -0.000000 -0.000003 0.000000 
6.546283 88.161270 -5.801771 3.087589 -5.928562 4.430191 0.285075 0.785344 -1.508869 -4.339322 2.429044 -3.497875 1.803679 0.248101 2.228587 -2.536160 4.660406 -1.147743 0.000000 0.000000 -0.000000 -1.488927 -3.499583 7.391016 -0.356789 -9.094473 6.423185 -8.615869 -13.911881 -9.787661 0.000000 0.000006 0.000001 5.277281 -0.771261 -11.627028 9.430373 8.747841 -9.616358 -3.504991 11.391642 12.091641 -0.000003 0.000001 0.000001 -13.406805 -2.175875 -4.946910 13.363839 -3.199280 -7.539748 -4.714797 14.713952 8.618229 -0.000002 0.000001 -0.000000 0.671168 1.569362 -1.667139 -3.788334 -0.561657 -5.559483 4.887267 -1.084848 3.334262 0.000000 -0.000003 0.000000 
6.549416 88.150383 -5.853448 3.099155 -6.004105 4.347684 -0.193130 0.468403 -1.384872 -3.312400 3.459751 -3.446962 1.228431 -0.419603 2.152815 -3.126857 4.526334 -1.091401 -0.000001 -0.000001 -0.000000 -1.361232 -3.656063 7.416323 -0.310415 -9.351120 6.385877 -7.860863 -14.053062 -10.262393 -0.000005 0.000006 0.000001 5.470875 -0.657321 -11.639577 9.548396 8.871540 -9.444847 -3.236025 11.373652 11.769073 -0.000001 -0.000003 -0.000001 -13.418731 -2.164445 -4.885880 13.460390 -3.227629 -7.511598 -4.936088 14.907690 8.632272 0.000001 0.000000 -0.000000 0.834328 1.657502 -1.649679 -3.880568 -0.656175 -5.533759 4.855246 -0.975312 3.344033 -0.000000 -0.000001 0.000000 
6.551242 88.138855 -5.902755 3.544020 -6.072188 4.296276 -0.293372 0.510572 -1.564130 -3.949612 3.019461 -3.568245 1.493595 0.106414 2.456282 -2.816908 4.419008 -1.015036 0.000004 -0.000001 0.000000 -1.218809 -4.089425 7.584948 -0.626489 -10.472895 6.352192 -8.110792 -13.709069 -8.654907 -0.000005 -0.000000 -0.000000 5.411821 -1.053260 -11.618159 9.721852 9.172052 -9.323604 -3.205445 11.667408 11.461614 -0.000000 0.000001 0.000003 -13.987041 -2.234616 -4.714073 13.585595 -3.298577 -7.710604 -4.762342 15.263820 8.980899 0.000001 0.000000 0.000001 0.780092 1.644731 -1.652881 -3.704052 -0.406226 -5.592348 5.123185 -0.515616 3.436674 0.000000 -0.000003 0.000000 
